<svg width="48" height="48" viewBox="0 0 48 48" fill="none" xmlns="http://www.w3.org/2000/svg">
    <path d="M24 4C20.6863 4 18 6.68629 18 10V11.5C16.6193 11.5 15.5 12.6193 15.5 14C15.5 15.3807 16.6193 16.5 18 16.5V18C18 19.3807 16.8807 20.5 15.5 20.5C14.1193 20.5 13 21.6193 13 23C13 24.3807 14.1193 25.5 15.5 25.5C16.8807 25.5 18 26.6193 18 28V38C18 41.3137 20.6863 44 24 44C27.3137 44 30 41.3137 30 38V28C30 26.6193 31.1193 25.5 32.5 25.5C33.8807 25.5 35 24.3807 35 23C35 21.6193 33.8807 20.5 32.5 20.5C31.1193 20.5 30 19.3807 30 18V16.5C31.3807 16.5 32.5 15.3807 32.5 14C32.5 12.6193 31.3807 11.5 30 11.5V10C30 6.68629 27.3137 4 24 4Z" fill="white"/>
    <circle cx="24" cy="24" r="3" fill="white"/>
    <path d="M8 14C8 14 12 18 12 24C12 30 8 34 8 34" stroke="white" stroke-width="2" stroke-linecap="round"/>
    <path d="M40 14C40 14 36 18 36 24C36 30 40 34 40 34" stroke="white" stroke-width="2" stroke-linecap="round"/>
</svg>