<svg width="48" height="48" viewBox="0 0 48 48" fill="none" xmlns="http://www.w3.org/2000/svg">
    <circle cx="24" cy="12" r="6" fill="white"/>
    <path d="M32 28C32 23.5817 28.4183 20 24 20C19.5817 20 16 23.5817 16 28V36C16 38.2091 17.7909 40 20 40H28C30.2091 40 32 38.2091 32 36V28Z" fill="white"/>
    <path d="M8 32C8 32 10 26 10 20C10 14 8 8 8 8" stroke="white" stroke-width="2" stroke-linecap="round"/>
    <path d="M40 32C40 32 38 26 38 20C38 14 40 8 40 8" stroke="white" stroke-width="2" stroke-linecap="round"/>
    <rect x="20" y="30" width="8" height="2" rx="1" fill="url(#gradient)"/>
    <rect x="20" y="34" width="8" height="2" rx="1" fill="url(#gradient)"/>
    <defs>
        <linearGradient id="gradient" x1="20" y1="30" x2="28" y2="36">
            <stop stop-color="#007AFF"/>
            <stop offset="1" stop-color="#5856D6"/>
        </linearGradient>
    </defs>
</svg>